HIERARCHY
ROOT Hips
{
	OFFSET 0.000000 0.000000 0.000000
	CHANNELS 6 Xposition Yposition Zposition Xrotation Yrotation Zrotation
	JOINT LeftUpLeg_virtual
	{
		OFFSET 0.000000 0.000000 0.000000
		CHANNELS 3 Xrotation Yrotation Zrotation
		JOINT LeftUpLeg
		{
			OFFSET 11.394100 -6.187798 -0.413800
			CHANNELS 3 Xrotation Yrotation Zrotation
			JOINT LeftLeg
			{
				OFFSET 0.430247 -32.302673 3.732800
				CHANNELS 3 Xrotation Yrotation Zrotation
				JOINT LeftFoot
				{
					OFFSET -0.430247 -48.264931 -6.423300
					CHANNELS 3 Xrotation Yrotation Zrotation
					JOINT LeftToeBase
					{
						OFFSET 4.230900 -16.068199 23.438400
						CHANNELS 3 Xrotation Yrotation Zrotation
						JOINT LeftToe_End
						{
							OFFSET 4.510700 0.695400 19.974600
							CHANNELS 3 Xrotation Yrotation Zrotation
							End Site
							{
								OFFSET 0 0 0
							}
						}
					}
				}
			}
		}
	}
	JOINT RightUpLeg_virtual
	{
		OFFSET 0.000000 0.000000 0.000000
		CHANNELS 3 Xrotation Yrotation Zrotation
		JOINT RightUpLeg
		{
			OFFSET -11.333700 -6.187798 -0.413800
			CHANNELS 3 Xrotation Yrotation Zrotation
			JOINT RightLeg
			{
				OFFSET -0.430392 -32.302628 3.733000
				CHANNELS 3 Xrotation Yrotation Zrotation
				JOINT RightFoot
				{
					OFFSET 0.430392 -48.264973 -6.423500
					CHANNELS 3 Xrotation Yrotation Zrotation
					JOINT RightToeBase
					{
						OFFSET -4.230900 -16.068199 23.438400
						CHANNELS 3 Xrotation Yrotation Zrotation
						JOINT RightToe_End
						{
							OFFSET -4.510700 0.695400 19.974600
							CHANNELS 3 Xrotation Yrotation Zrotation
							End Site
							{
								OFFSET 0 0 0
							}
						}
					}
				}
			}
		}
	}
	JOINT Spine_virtual
	{
		OFFSET 0.000000 0.000000 0.000000
		CHANNELS 3 Xrotation Yrotation Zrotation
		JOINT Spine
		{
			OFFSET -0.002400 12.777504 0.315300
			CHANNELS 3 Xrotation Yrotation Zrotation
			JOINT Spine1
			{
				OFFSET -0.002067 5.816869 0.032633
				CHANNELS 3 Xrotation Yrotation Zrotation
				JOINT Spine1_split
				{
					OFFSET -0.002067 5.816869 0.032633
					CHANNELS 3 Xrotation Yrotation Zrotation
					JOINT Spine2
					{
						OFFSET -0.002067 5.816869 0.032633
						CHANNELS 3 Xrotation Yrotation Zrotation
						JOINT Neck_virtual
						{
							OFFSET 0.000000 0.000000 0.000000
							CHANNELS 3 Xrotation Yrotation Zrotation
							JOINT Neck
							{
								OFFSET -0.003700 21.199493 -0.826900
								CHANNELS 3 Xrotation Yrotation Zrotation
								JOINT Head
								{
									OFFSET 0.000000 20.442200 4.834800
									CHANNELS 3 Xrotation Yrotation Zrotation
									JOINT HeadTop_End
									{
										OFFSET 0.000000 34.668396 4.968400
										CHANNELS 3 Xrotation Yrotation Zrotation
										End Site
										{
											OFFSET 0 0 0
										}
									}
								}
							}
						}
						JOINT LeftShoulder_virtual
						{
							OFFSET 0.000000 0.000000 0.000000
							CHANNELS 3 Xrotation Yrotation Zrotation
							JOINT LeftShoulder
							{
								OFFSET 3.288150 8.794197 -1.372250
								CHANNELS 3 Xrotation Yrotation Zrotation
								JOINT LeftShoulder_split
								{
									OFFSET 3.288150 8.794197 -1.372250
									CHANNELS 3 Xrotation Yrotation Zrotation
									JOINT LeftArm
									{
										OFFSET 11.953299 -2.279007 -0.146200
										CHANNELS 3 Xrotation Yrotation Zrotation
										JOINT LeftForeArm
										{
											OFFSET 18.448900 0.000000 0.000000
											CHANNELS 3 Xrotation Yrotation Zrotation
											JOINT LeftHand
											{
												OFFSET 29.527798 0.000000 0.000000
												CHANNELS 3 Xrotation Yrotation Zrotation
												End Site
												{
													OFFSET 0 0 0
												}
											}
										}
									}
								}
							}
						}
						JOINT RightShoulder_virtual
						{
							OFFSET 0.000000 0.000000 0.000000
							CHANNELS 3 Xrotation Yrotation Zrotation
							JOINT RightShoulder
							{
								OFFSET -3.249400 8.794197 -1.372250
								CHANNELS 3 Xrotation Yrotation Zrotation
								JOINT RightShoulder_split
								{
									OFFSET -3.249400 8.794197 -1.372250
									CHANNELS 3 Xrotation Yrotation Zrotation
									JOINT RightArm
									{
										OFFSET -11.953299 -2.279007 -0.146200
										CHANNELS 3 Xrotation Yrotation Zrotation
										JOINT RightForeArm
										{
											OFFSET -18.448900 0.000000 0.000000
											CHANNELS 3 Xrotation Yrotation Zrotation
											JOINT RightHand
											{
												OFFSET -29.527802 0.000000 0.000000
												CHANNELS 3 Xrotation Yrotation Zrotation
												End Site
												{
													OFFSET 0 0 0
												}
											}
										}
									}
								}
							}
						}
					}
				}
			}
		}
	}
}
MOTION
Frames: 5
Frame Time: 0.03333333
-4.625446 86.270287 77.374275 0.000000 0.000000 0.000000 26.863720 15.742435 -5.238421 -4.871855 6.095869 6.625205 23.686541 14.531458 1.127121 -23.345108 12.910109 -28.480501 -18.367830 -7.258244 4.290100 0.000000 0.000000 0.000000 28.013379 14.642488 -5.181278 -81.220389 -4.782143 -6.691652 62.093646 -26.553412 2.551066 3.049809 -0.018997 0.224746 -6.465234 13.110854 9.918359 0.000000 0.000000 0.000000 29.624436 9.887646 -4.181710 5.388916 -1.491352 -0.058376 8.370142 -0.427311 3.800541 1.207940 -0.765090 1.339426 0.000000 0.000000 0.000000 10.487960 0.183402 3.305976 -6.907036 -0.689378 0.166281 -6.700573 6.141176 3.083538 0.000000 0.000000 0.000000 11.703010 -0.446899 3.438956 2.391037 -19.700993 3.524544 1.779972 -1.334553 -3.374813 -40.534673 -21.571915 -41.153891 108.537635 -63.509039 120.352919 0.000000 0.000000 0.000000 10.335222 0.168987 4.048973 3.214280 10.892084 -1.771060 2.586992 5.683726 0.472955 -46.600492 14.064986 35.289012 120.004498 46.680177 -141.563020 0.000000 0.000000 0.000000 
-4.677413 85.787003 77.793808 0.000000 0.000000 0.000000 27.042619 15.907507 -5.302388 -5.189774 6.278093 6.778111 24.275894 14.450023 1.119043 -23.474559 12.926998 -29.060266 -19.394158 -7.456617 4.357183 0.000000 0.000000 0.000000 28.208201 14.822024 -5.241410 -82.125737 -4.910457 -6.908804 63.168806 -26.588600 2.710825 3.139460 -0.048244 0.212287 -7.079396 12.775371 10.349910 0.000000 0.000000 0.000000 29.853353 9.878203 -4.165908 5.467700 -1.393140 -0.019718 7.952818 -0.384675 3.792537 1.211931 -0.773711 1.323758 0.000000 0.000000 0.000000 10.017132 0.208941 3.303396 -7.132024 -0.659386 0.046028 -6.715593 5.936388 3.085373 0.000000 0.000000 0.000000 11.219941 -0.411503 3.428388 2.520189 -19.772366 3.996262 1.786695 -1.293745 -3.317089 -40.998429 -21.709965 -41.054372 106.741759 -64.007656 118.637586 0.000000 0.000000 0.000000 9.863868 0.198311 4.030386 3.287912 10.706387 -2.172440 2.629756 5.721187 0.413871 -47.316504 14.102024 35.730103 119.496810 47.091549 -140.802915 0.000000 0.000000 0.000000 
-4.718699 85.362564 78.194733 0.000000 0.000000 0.000000 27.250274 16.020760 -5.371759 -5.557950 6.532414 6.937122 24.840949 14.375240 1.129863 -23.556576 12.929605 -29.663255 -20.421048 -7.656380 4.389470 0.000000 0.000000 0.000000 28.394404 14.885132 -5.278751 -82.959573 -5.025196 -7.137277 64.121140 -26.557555 2.801586 3.200525 0.022262 0.320293 -7.636883 12.500365 10.683231 0.000000 0.000000 0.000000 30.101153 9.845331 -4.151780 5.559423 -1.299375 0.017074 7.509944 -0.343623 3.788231 1.213722 -0.756390 1.314180 0.000000 0.000000 0.000000 9.509868 0.231548 3.304019 -7.348892 -0.608621 -0.093317 -6.723013 5.767040 3.091936 0.000000 0.000000 0.000000 10.704092 -0.377548 3.422621 2.639059 -19.841698 4.441823 1.807826 -1.255123 -3.247620 -41.599366 -21.912186 -41.033372 104.538634 -64.512988 116.482442 0.000000 0.000000 0.000000 9.360594 0.227125 4.017784 3.353622 10.511716 -2.595505 2.711244 5.766428 0.356281 -48.140454 14.084321 36.200669 118.857613 47.580495 -139.915401 0.000000 0.000000 0.000000 
-4.748728 84.973175 78.594254 0.000000 0.000000 0.000000 27.487219 16.053096 -5.440833 -5.957034 6.857395 7.119636 25.409636 14.315443 1.155273 -23.637785 12.934462 -30.247097 -21.413309 -7.858302 4.403341 0.000000 0.000000 0.000000 28.585752 14.827152 -5.294075 -83.705293 -5.153952 -7.348224 64.958671 -26.492863 2.833758 3.065297 0.165371 0.420400 -8.043235 12.279925 10.972987 0.000000 0.000000 0.000000 30.372697 9.769899 -4.140165 5.657280 -1.210316 0.047755 7.043031 -0.306102 3.781479 1.218314 -0.715701 1.304498 0.000000 0.000000 0.000000 8.965118 0.249069 3.299806 -7.546682 -0.542813 -0.238121 -6.746524 5.621983 3.114552 0.000000 0.000000 0.000000 10.156264 -0.348614 3.414599 2.747833 -19.909114 4.871314 1.827538 -1.212484 -3.185572 -42.304358 -22.194898 -41.075074 101.963980 -64.996224 113.919113 0.000000 0.000000 0.000000 8.822350 0.252125 4.003918 3.412670 10.314390 -3.030400 2.822007 5.803225 0.301447 -49.030537 13.956309 36.700027 118.097741 48.136701 -138.922988 0.000000 0.000000 0.000000 
-4.769582 84.586334 78.997116 0.000000 0.000000 0.000000 27.757305 15.975042 -5.491941 -6.378059 7.226573 7.339583 26.014000 14.271722 1.191407 -23.771838 12.947536 -30.768428 -22.353730 -8.070213 4.434208 0.000000 0.000000 0.000000 28.807211 14.680319 -5.299789 -84.375840 -5.294413 -7.524916 65.779107 -26.418075 2.852934 2.708296 0.334703 0.401435 -8.355230 12.081476 11.299401 0.000000 0.000000 0.000000 30.677344 9.659759 -4.135058 5.751913 -1.124246 0.069326 6.557849 -0.273173 3.766461 1.213142 -0.675165 1.311211 0.000000 0.000000 0.000000 8.389581 0.261234 3.286029 -7.716563 -0.470366 -0.376295 -6.809009 5.485335 3.154941 0.000000 0.000000 0.000000 9.579144 -0.325181 3.399520 2.849842 -19.980952 5.298043 1.857371 -1.156324 -3.140282 -43.067973 -22.553626 -41.131242 99.121181 -65.439660 111.055044 0.000000 0.000000 0.000000 8.252369 0.272383 3.981415 3.465470 10.116059 -3.475174 2.951372 5.835288 0.242763 -49.937907 13.710134 37.222076 117.263010 48.731907 -137.879062 0.000000 0.000000 0.000000 
